<mxfile host="app.diagrams.net" modified="2022-02-28T13:59:23.475Z" agent="5.0 (Windows NT 10.0; Win64; x64) AppleWebKit/537.36 (KHTML, like Gecko) Chrome/98.0.4758.102 Safari/537.36" etag="BwhV2SJ7RgWcXERWfSGe" version="16.6.4" type="github">
  <diagram id="Jyg_Y3lGjo4JM3x9iuQO" name="Page-1">
    <mxGraphModel dx="1209" dy="634" grid="1" gridSize="10" guides="1" tooltips="1" connect="1" arrows="1" fold="1" page="1" pageScale="1" pageWidth="827" pageHeight="1169" math="0" shadow="0">
      <root>
        <mxCell id="0" />
        <mxCell id="1" parent="0" />
        <mxCell id="zS6gR17CktIGSD9qHRHd-1" value="Host" style="rounded=0;whiteSpace=wrap;html=1;" vertex="1" parent="1">
          <mxGeometry x="120" y="180" width="500" height="280" as="geometry" />
        </mxCell>
        <mxCell id="zS6gR17CktIGSD9qHRHd-2" value="Guest" style="whiteSpace=wrap;html=1;aspect=fixed;" vertex="1" parent="1">
          <mxGeometry x="220" y="210" width="120" height="120" as="geometry" />
        </mxCell>
        <mxCell id="zS6gR17CktIGSD9qHRHd-3" value="Target" style="whiteSpace=wrap;html=1;aspect=fixed;" vertex="1" parent="1">
          <mxGeometry x="440" y="210" width="120" height="120" as="geometry" />
        </mxCell>
        <mxCell id="zS6gR17CktIGSD9qHRHd-9" value="2.启动监控程序" style="text;html=1;strokeColor=none;fillColor=none;align=center;verticalAlign=middle;whiteSpace=wrap;rounded=0;" vertex="1" parent="1">
          <mxGeometry x="270" y="210" width="70" height="40" as="geometry" />
        </mxCell>
        <mxCell id="zS6gR17CktIGSD9qHRHd-11" value="" style="html=1;shadow=0;dashed=0;align=center;verticalAlign=middle;shape=mxgraph.arrows2.arrow;dy=0.6;dx=40;notch=0;" vertex="1" parent="1">
          <mxGeometry x="30" y="215" width="250" height="20" as="geometry" />
        </mxCell>
        <mxCell id="zS6gR17CktIGSD9qHRHd-12" value="1.恶意程序" style="text;html=1;strokeColor=none;fillColor=none;align=center;verticalAlign=middle;whiteSpace=wrap;rounded=0;" vertex="1" parent="1">
          <mxGeometry x="40" y="230" width="60" height="30" as="geometry" />
        </mxCell>
        <mxCell id="zS6gR17CktIGSD9qHRHd-13" value="" style="html=1;shadow=0;dashed=0;align=center;verticalAlign=middle;shape=mxgraph.arrows2.arrow;dy=0.6;dx=40;direction=south;notch=0;" vertex="1" parent="1">
          <mxGeometry x="295" y="310" width="20" height="70" as="geometry" />
        </mxCell>
        <mxCell id="zS6gR17CktIGSD9qHRHd-14" value="3.让host启动" style="text;html=1;strokeColor=none;fillColor=none;align=center;verticalAlign=middle;whiteSpace=wrap;rounded=0;" vertex="1" parent="1">
          <mxGeometry x="280" y="380" width="60" height="30" as="geometry" />
        </mxCell>
        <mxCell id="zS6gR17CktIGSD9qHRHd-15" value="" style="html=1;shadow=0;dashed=0;align=center;verticalAlign=middle;shape=mxgraph.arrows2.arrow;dy=0.6;dx=40;notch=0;" vertex="1" parent="1">
          <mxGeometry x="320" y="290" width="170" height="20" as="geometry" />
        </mxCell>
        <mxCell id="zS6gR17CktIGSD9qHRHd-16" value="4.进程注入" style="text;html=1;strokeColor=none;fillColor=none;align=center;verticalAlign=middle;whiteSpace=wrap;rounded=0;" vertex="1" parent="1">
          <mxGeometry x="340" y="270" width="80" height="30" as="geometry" />
        </mxCell>
        <mxCell id="zS6gR17CktIGSD9qHRHd-17" value="" style="html=1;shadow=0;dashed=0;align=center;verticalAlign=middle;shape=mxgraph.arrows2.arrow;dy=0.6;dx=40;flipH=1;notch=0;" vertex="1" parent="1">
          <mxGeometry x="40" y="300" width="200" height="20" as="geometry" />
        </mxCell>
        <mxCell id="zS6gR17CktIGSD9qHRHd-20" value="5.将得到的日志进行机器学习" style="text;html=1;strokeColor=none;fillColor=none;align=center;verticalAlign=middle;whiteSpace=wrap;rounded=0;" vertex="1" parent="1">
          <mxGeometry x="220" y="295" width="60" height="30" as="geometry" />
        </mxCell>
        <mxCell id="zS6gR17CktIGSD9qHRHd-21" value="6.前端展示" style="text;html=1;strokeColor=none;fillColor=none;align=center;verticalAlign=middle;whiteSpace=wrap;rounded=0;" vertex="1" parent="1">
          <mxGeometry x="40" y="270" width="60" height="30" as="geometry" />
        </mxCell>
      </root>
    </mxGraphModel>
  </diagram>
</mxfile>
